<?xml version="1.0" standalone="no"?>
<!DOCTYPE svg PUBLIC "-//W3C//DTD SVG 1.1//EN" "http://www.w3.org/Graphics/SVG/1.1/DTD/svg11.dtd" >
<svg xmlns="http://www.w3.org/2000/svg" xmlns:xlink="http://www.w3.org/1999/xlink" version="1.1">
<metadata>
Created by FontForge 20160405 at Sat May  6 20:51:28 2017
 By Apache
Modern and elegant sans serif free font.
</metadata>
<defs>
<font id="Code-Bold" horiz-adv-x="588" >
  <font-face 
    font-family="Code Bold"
    font-weight="700"
    font-stretch="normal"
    units-per-em="1000"
    panose-1="2 0 5 6 3 0 0 2 0 4"
    ascent="700"
    descent="-300"
    x-height="699"
    cap-height="699"
    bbox="-56 -225.142 907 849"
    underline-thickness="0"
    underline-position="0"
    stemh="50"
    stemv="53"
    unicode-range="U+0020-FB02"
  />
<missing-glyph horiz-adv-x="483" 
d="M-17 0v668h486v-668h-486zM365 451l-79 -116c39 -58 27 -39 79 -117v233zM316 103l-90 137l-89 -137h179zM226 430l89 134h-177zM165 335l-78 116v-234z" />
    <glyph glyph-name="f_i" unicode="fi" horiz-adv-x="749" 
d="M117 299v-299h-101v699h417v-101h-316v-197h280v-102h-280zM711 699v-100h-130v-504h130v-95h-361v95h130v604h231z" />
    <glyph glyph-name="f_l" unicode="fl" horiz-adv-x="939" 
d="M122 299v-299h-101v699h417v-101h-316v-197h280v-102h-280zM578 699v-598h329v-101h-430v699h101z" />
    <glyph glyph-name=".notdef" horiz-adv-x="483" 
d="M-17 0v668h486v-668h-486zM365 451l-79 -116c39 -58 27 -39 79 -117v233zM316 103l-90 137l-89 -137h179zM226 430l89 134h-177zM165 335l-78 116v-234z" />
    <glyph glyph-name="space" unicode=" " horiz-adv-x="352" 
 />
    <glyph glyph-name="exclam" unicode="!" horiz-adv-x="205" 
d="M32 700h105v-546h-105v546zM82 115c38 0 64 -25 64 -63c0 -30 -26 -58 -64 -58c-33 0 -60 28 -60 58c0 38 27 63 60 63z" />
    <glyph glyph-name="quotedbl" unicode="&#x22;" horiz-adv-x="288" 
d="M2 698h97v-248h-97v248zM142 698h97v-248h-97v248z" />
    <glyph glyph-name="dollar" unicode="$" horiz-adv-x="550" 
d="M205 704v54h100v-54c89 -15 176 -66 189 -172l-99 -10c-10 43 -49 74 -90 80v-204c108 -4 207 -59 207 -188c0 -141 -100 -189 -207 -209v-61h-100v61c-94 16 -191 78 -203 184v7l101 1l1 -1c10 -42 56 -83 101 -95v211c-161 -16 -258 173 -160 307c38 49 96 79 160 89z
M305 297v-200c131 -4 152 210 0 200zM124 557h-1c-41 -65 2 -148 82 -147v193c-32 -8 -63 -22 -81 -46z" />
    <glyph glyph-name="ampersand" unicode="&#x26;" horiz-adv-x="600" 
d="M474 560l-91 -28c-26 58 -71 74 -117 74c-65 0 -128 -35 -129 -100c0 -50 26 -99 106 -99h325v-100h-70v-117c0 -113 -85 -193 -236 -196c-182 -3 -267 111 -256 226c7 50 37 112 106 140c-58 34 -75 93 -75 145c0 132 115 201 229 201c87 0 166 -35 208 -146zM242 307
c-94 3 -131 -49 -136 -97c-4 -56 45 -118 155 -118c85 0 137 41 137 102v113h-156z" />
    <glyph glyph-name="comma" unicode="," horiz-adv-x="214" 
d="M96 -79h-101l73 184h117z" />
    <glyph glyph-name="period" unicode="." horiz-adv-x="156" 
d="M57 120c37 0 63 -25 63 -62c0 -30 -26 -61 -63 -61c-33 0 -60 31 -60 61c0 37 27 62 60 62z" />
    <glyph glyph-name="zero" unicode="0" horiz-adv-x="552" 
d="M253 574c-108 0 -160 -120 -160 -240s52 -239 160 -239c107 0 160 119 160 239s-53 240 -160 240zM253 -2c-171 0 -256 168 -256 336s85 337 256 337c170 0 256 -169 256 -337s-86 -336 -256 -336z" />
    <glyph glyph-name="one" unicode="1" horiz-adv-x="269" 
d="M217 0h-100v510l-94 -128l-76 55l189 266h81v-703z" />
    <glyph glyph-name="two" unicode="2" horiz-adv-x="531" 
d="M104 469l-101 8c18 125 98 227 244 227c265 0 337 -291 148 -423c-99 -82 -125 -100 -226 -184h321v-97h-491v78l329 280h-1c110 79 83 245 -80 245c-86 0 -131 -56 -143 -134z" />
    <glyph glyph-name="three" unicode="3" horiz-adv-x="519" 
d="M153 304v95h105c70 0 96 58 96 104c0 70 -67 102 -133 102c-53 0 -107 -30 -120 -84l-91 22c25 106 118 158 211 158c113 0 232 -62 233 -198c0 -55 -13 -112 -64 -146c63 -37 91 -94 90 -163c-1 -101 -85 -203 -253 -203c-150 0 -221 87 -237 183l94 17
c9 -56 55 -106 143 -106c111 0 163 61 158 119c-4 41 -36 100 -127 100h-105z" />
    <glyph glyph-name="four" unicode="4" horiz-adv-x="529" 
d="M-13 229l371 471h78v-444h57v-98h-57v-158h-100v158h-349v71zM119 254h219v271z" />
    <glyph glyph-name="five" unicode="5" horiz-adv-x="534" 
d="M-1 159l93 38c28 -57 77 -95 146 -95c104 0 155 70 154 142c0 49 -28 100 -81 123c-83 34 -163 26 -246 -23l-57 26v333h446v-98h-344v-140c77 25 160 27 237 -4c97 -40 146 -126 147 -217c1 -122 -86 -244 -256 -244c-117 0 -198 55 -239 159z" />
    <glyph glyph-name="six" unicode="6" horiz-adv-x="542" 
d="M248 380c-103 0 -154 -70 -154 -140s51 -138 154 -138c104 0 154 68 154 138s-50 140 -154 140zM36 380l228 320h124l-171 -241c52 18 121 15 170 -12c77 -44 116 -126 116 -207c0 -120 -85 -240 -255 -240c-169 0 -255 120 -255 240c0 49 16 99 43 140z" />
    <glyph glyph-name="seven" unicode="7" horiz-adv-x="507" 
d="M-7 700h493v-69l-345 -631h-116l328 601h-360v99z" />
    <glyph glyph-name="eight" unicode="8" horiz-adv-x="533" 
d="M246 87c103 0 153 61 153 115c0 55 -50 112 -153 112c-101 0 -152 -57 -152 -112c0 -54 51 -115 152 -115zM246 617c-59 0 -123 -39 -123 -106c0 -48 40 -104 123 -104c84 0 124 56 124 105c0 67 -65 105 -124 105zM470 509c0 -51 -31 -117 -88 -143
c81 -31 118 -100 118 -163c0 -105 -85 -210 -254 -210c-167 0 -252 99 -252 210c0 62 42 129 121 163c-76 31 -92 103 -92 144c1 133 116 196 223 196c149 0 224 -98 224 -197z" />
    <glyph glyph-name="nine" unicode="9" horiz-adv-x="548" 
d="M255 323c104 0 155 71 155 141c0 71 -51 140 -155 140s-155 -69 -155 -140c0 -70 51 -141 155 -141zM470 323l-230 -323h-125l172 244c-53 -19 -123 -16 -171 11c-79 45 -118 128 -118 209c0 122 86 243 257 243s258 -121 258 -243c0 -49 -16 -99 -43 -141z" />
    <glyph glyph-name="colon" unicode=":" horiz-adv-x="149" 
d="M53 112c35 0 59 -23 59 -58c0 -28 -24 -57 -59 -57c-31 0 -56 29 -56 57c0 35 25 58 56 58zM53 385c35 0 59 -23 59 -58c0 -29 -24 -57 -59 -57c-31 0 -56 28 -56 57c0 35 25 58 56 58z" />
    <glyph glyph-name="semicolon" unicode=";" horiz-adv-x="140" 
d="M52 385c35 0 59 -23 59 -58c0 -29 -24 -57 -59 -57c-31 0 -56 28 -56 57c0 35 25 58 56 58zM-56 -98h101l89 184h-117z" />
    <glyph glyph-name="question" unicode="?" horiz-adv-x="510" 
d="M266 227l1 -81h-102v82c0 90 58 117 121 149h-1c37 20 75 40 77 100c2 63 -51 124 -147 124c-69 0 -121 -41 -153 -107l-82 47c43 92 121 164 235 164c162 0 256 -111 254 -230c-3 -119 -78 -155 -141 -189c-32 -17 -62 -31 -62 -59zM215 116c39 0 66 -27 66 -66
c0 -31 -27 -64 -66 -64c-35 0 -63 33 -63 64c0 39 28 66 63 66z" />
    <glyph glyph-name="A" unicode="A" 
d="M276 548l-88 -247h174zM485 0l-84 206h-251c-27 -64 -62 -148 -84 -206h-109l281 709h74l281 -709h-108z" />
    <glyph glyph-name="C" unicode="C" horiz-adv-x="710" 
d="M3 348c0 99 40 187 100 251c61 63 147 104 242 104c160 0 286 -100 326 -258h-100c-37 105 -123 158 -226 158c-67 0 -128 -29 -172 -75s-72 -108 -72 -180c0 -70 28 -132 72 -178s105 -75 172 -75c106 0 196 61 232 167h99c-40 -159 -168 -267 -331 -267
c-95 0 -181 40 -242 104c-60 64 -100 152 -100 249z" />
    <glyph glyph-name="D" unicode="D" horiz-adv-x="651" 
d="M118 101h150c162 0 244 124 244 248s-82 249 -244 249h-150v-497zM17 699h251c229 0 344 -175 344 -350s-115 -349 -344 -349h-251v699z" />
    <glyph glyph-name="E" unicode="E" horiz-adv-x="468" 
d="M114 299v-198h325v-101h-427v699h426v-101h-324v-197h317v-102h-317z" />
    <glyph glyph-name="F" unicode="F" horiz-adv-x="449" 
d="M113 299v-299h-101v699h417v-101h-316v-197h280v-102h-280z" />
    <glyph glyph-name="G" unicode="G" horiz-adv-x="725" 
d="M680 449h-108c-28 113 -136 154 -225 154c-137 0 -243 -107 -243 -254c0 -148 106 -257 243 -257c86 0 178 40 220 142h-259v101h377c-5 -59 -10 -98 -19 -121v1c-48 -134 -192 -220 -319 -220c-196 0 -344 148 -344 354c0 207 151 355 344 355c134 0 296 -69 333 -255z
" />
    <glyph glyph-name="H" unicode="H" horiz-adv-x="563" 
d="M116 699v-295h296v295h102v-699h-102v304h-296v-304h-101v699h101z" />
    <glyph glyph-name="I" unicode="I" horiz-adv-x="389" 
d="M355 699v-100h-130v-498h130v-101h-361v101h130v498h-130v100h361z" />
    <glyph glyph-name="J" unicode="J" horiz-adv-x="404" 
d="M362 699v-396c0 -208 -171 -303 -386 -303v101c159 0 285 63 285 202v296h-189v100h290z" />
    <glyph glyph-name="K" unicode="K" horiz-adv-x="525" 
d="M17 699h100v-699h-100v699zM136 324v51l244 324h127l-267 -347l295 -352h-132z" />
    <glyph glyph-name="L" unicode="L" horiz-adv-x="470" 
d="M114 699v-598h329v-101h-430v699h101z" />
    <glyph glyph-name="M" unicode="M" horiz-adv-x="707" 
d="M120 493v-493h-101v700h82l231 -340l231 340h80v-700h-100v493l-183 -272h-57z" />
    <glyph glyph-name="N" unicode="N" 
d="M117 0h-101v701l78 -1l341 -493v493h100v-700h-80l-338 489v-489z" />
    <glyph glyph-name="O" unicode="O" horiz-adv-x="758" 
d="M609 350c0 72 -29 135 -74 181c-47 47 -112 76 -181 76s-133 -29 -179 -76c-46 -46 -75 -110 -75 -181s29 -135 75 -181c46 -47 110 -76 179 -76s134 29 181 76c45 46 74 109 74 181zM-2 350c0 99 41 188 104 253c64 65 154 106 252 106c99 0 188 -41 253 -106
c63 -65 104 -154 104 -253s-41 -188 -104 -253c-65 -66 -154 -106 -253 -106c-98 0 -188 40 -252 106c-63 65 -104 154 -104 253z" />
    <glyph glyph-name="Q" unicode="Q" horiz-adv-x="766" 
d="M616 350c0 71 -30 135 -75 181c-46 47 -110 76 -180 76c-69 0 -133 -29 -180 -76c-45 -46 -75 -110 -75 -181s30 -136 75 -182c87 -87 215 -103 322 -39l-194 173h140l119 -108c31 42 48 100 48 156zM758 22v-22h-110l-66 59c-156 -103 -363 -84 -473 38
c-61 67 -104 154 -104 253s41 188 104 253c64 65 154 106 252 106c99 0 188 -41 253 -106c63 -65 104 -154 104 -253c0 -83 -29 -158 -76 -219z" />
    <glyph glyph-name="R" unicode="R" horiz-adv-x="527" 
d="M154 307v48h118c85 0 127 61 127 122c0 60 -42 121 -127 121h-155v-598h-100v700h255c152 0 228 -112 228 -223c0 -99 -61 -193 -181 -214l221 -263h-131z" />
    <glyph glyph-name="S" unicode="S" horiz-adv-x="554" 
d="M498 523l-100 -4c-14 63 -82 90 -143 89c-47 -1 -99 -17 -127 -53c-14 -18 -19 -41 -17 -65c5 -72 84 -81 159 -88c96 -12 215 -37 242 -149c3 -15 5 -32 5 -46c0 -135 -134 -213 -260 -213c-108 0 -239 64 -252 189l-1 19l102 2l1 -15v4c7 -65 86 -99 151 -99
c75 0 157 42 157 114c0 7 -1 15 -3 24c-12 53 -84 62 -154 69c-109 11 -237 35 -248 181v-1c-4 47 8 94 38 133c47 61 131 93 212 93c108 0 220 -56 238 -184z" />
    <glyph glyph-name="T" unicode="T" horiz-adv-x="534" 
d="M293 -3h-101v601h-212v102h524v-102h-211v-601z" />
    <glyph glyph-name="U" unicode="U" horiz-adv-x="589" 
d="M277 -7c-123 0 -259 74 -259 217v489h102v-490c0 -77 83 -115 157 -115c73 0 156 39 156 116v489h102v-490c0 -142 -138 -216 -258 -216z" />
    <glyph glyph-name="V" unicode="V" horiz-adv-x="602" 
d="M277 176l210 523h108l-281 -701h-74l-281 701h110z" />
    <glyph glyph-name="W" unicode="W" horiz-adv-x="851" 
d="M518 -6l-121 339c-40 -114 -83 -233 -119 -339h-75l-233 705h105l167 -505l115 327h81l114 -326c55 167 116 345 168 504h106l-233 -705h-75z" />
    <glyph glyph-name="X" unicode="X" horiz-adv-x="601" 
d="M-42 699h124l190 -262l191 262h123l-253 -351c75 -103 186 -255 253 -348h-123l-191 262l-190 -262h-124l253 348c-75 103 -189 262 -253 351z" />
    <glyph glyph-name="Y" unicode="Y" horiz-adv-x="567" 
d="M-50 699h119l191 -307l191 307h120l-260 -414v-285h-102v285z" />
    <glyph glyph-name="exclamdown" unicode="&#xa1;" horiz-adv-x="202" 
d="M31 -6h105v546h-105v-546zM86 579c-38 0 -64 25 -64 63c0 30 26 58 64 58c33 0 60 -28 60 -58c0 -38 -27 -63 -60 -63z" />
    <glyph glyph-name="fraction" unicode="&#x2044;" horiz-adv-x="326" 
 />
    <glyph glyph-name="quotesingle" unicode="'" horiz-adv-x="141" 
d="M5 701h96v-248h-96v248z" />
    <glyph glyph-name="periodcentered" unicode="&#xb7;" horiz-adv-x="165" 
d="M73 374c35 0 59 -23 59 -58c0 -29 -24 -57 -59 -57c-31 0 -56 28 -56 57c0 35 25 58 56 58z" />
    <glyph glyph-name="ellipsis" unicode="&#x2026;" horiz-adv-x="469" 
d="M70 113c35 0 59 -23 59 -58c0 -28 -24 -57 -59 -57c-31 0 -56 29 -56 57c0 35 25 58 56 58zM222 113c35 0 58 -23 58 -58c0 -28 -23 -57 -58 -57c-32 0 -57 29 -57 57c0 35 25 58 57 58zM377 113c35 0 58 -23 58 -58c0 -28 -23 -57 -58 -57c-32 0 -57 29 -57 57
c0 35 25 58 57 58z" />
    <glyph glyph-name="questiondown" unicode="&#xbf;" horiz-adv-x="514" 
d="M205 547l1 -81c0 -28 -30 -42 -62 -59c-63 -34 -138 -70 -141 -189c-2 -119 92 -230 254 -230c114 0 192 72 235 164l-82 47c-32 -66 -84 -107 -153 -107c-96 0 -149 61 -147 124c2 60 40 80 77 100h-1c63 32 121 59 121 149v82h-102zM257 577c-39 0 -66 27 -66 66
c0 31 27 64 66 64c35 0 63 -33 63 -64c0 -39 -28 -66 -63 -66z" />
    <glyph glyph-name="grave" unicode="`" horiz-adv-x="246" 
d="M202 610h-95l-113 107h136z" />
    <glyph glyph-name="acute" unicode="&#xb4;" horiz-adv-x="246" 
d="M111 610h-95l72 107h136z" />
    <glyph glyph-name="circumflex" unicode="&#x2c6;" horiz-adv-x="312" 
d="M104 632h-110l113 100h86l110 -100h-108l-48 39z" />
    <glyph glyph-name="tilde" unicode="&#x2dc;" horiz-adv-x="348" 
d="M88 611l-60 25c20 49 38 78 67 83c60 7 107 -76 124 1l65 -29c-16 -42 -34 -73 -60 -83c-49 -18 -108 77 -136 3z" />
    <glyph glyph-name="dieresis" unicode="&#xa8;" horiz-adv-x="395" 
d="M90 737c35 0 59 -24 59 -59c0 -28 -24 -56 -59 -56c-31 0 -56 28 -56 56c0 35 25 59 56 59zM277 737c35 0 58 -24 58 -59c0 -28 -27 -56 -58 -56c-32 0 -57 28 -57 56c0 35 25 59 57 59z" />
    <glyph glyph-name="ring" unicode="&#x2da;" horiz-adv-x="279" 
d="M44 697c0 46 37 85 83 85s85 -39 85 -85c0 -47 -38 -84 -85 -84c-46 0 -83 39 -83 84zM160 697c0 17 -13 33 -33 33c-16 0 -31 -16 -31 -33c0 -16 15 -31 31 -31c20 0 33 15 33 31z" />
    <glyph glyph-name="minus" unicode="&#x2212;" horiz-adv-x="494" 
 />
    <glyph glyph-name="uni00A0" unicode="&#xa0;" horiz-adv-x="200" 
 />
    <glyph glyph-name="uni03A9" unicode="&#x3a9;" horiz-adv-x="704" 
 />
    <glyph glyph-name="pi" unicode="&#x3c0;" horiz-adv-x="643" 
 />
    <glyph glyph-name="Euro" unicode="&#x20ac;" horiz-adv-x="738" 
d="M-12 357v69h45c15 67 48 126 92 173c61 63 147 104 242 104c160 0 286 -100 326 -258h-100c-37 105 -123 158 -226 158c-67 0 -128 -29 -172 -75c-27 -29 -49 -63 -61 -102h173v-69h-184v-9v-16h184v-73h-168c12 -34 32 -64 56 -89c44 -46 105 -75 172 -75
c106 0 196 61 232 167h99c-40 -159 -168 -267 -331 -267c-95 0 -181 40 -242 104c-41 43 -73 98 -89 160h-48v73h37v16v9h-37z" />
    <glyph glyph-name="litre" unicode="&#x2113;" horiz-adv-x="489" 
 />
    <glyph glyph-name="Omega" unicode="&#x2126;" horiz-adv-x="704" 
 />
    <glyph glyph-name="partialdiff" unicode="&#x2202;" horiz-adv-x="570" 
 />
    <glyph glyph-name="Delta" unicode="&#x2206;" horiz-adv-x="601" 
 />
    <glyph glyph-name="product" unicode="&#x220f;" horiz-adv-x="711" 
 />
    <glyph glyph-name="summation" unicode="&#x2211;" horiz-adv-x="624" 
 />
    <glyph glyph-name="uni2215" unicode="&#x2215;" horiz-adv-x="326" 
 />
    <glyph glyph-name="uni2219" unicode="&#x2219;" horiz-adv-x="165" 
 />
    <glyph glyph-name="radical" unicode="&#x221a;" horiz-adv-x="505" 
 />
    <glyph glyph-name="infinity" unicode="&#x221e;" horiz-adv-x="774" 
 />
    <glyph glyph-name="integral" unicode="&#x222b;" horiz-adv-x="486" 
 />
    <glyph glyph-name="approxequal" unicode="&#x2248;" horiz-adv-x="494" 
 />
    <glyph glyph-name="notequal" unicode="&#x2260;" horiz-adv-x="494" 
 />
    <glyph glyph-name="lessequal" unicode="&#x2264;" horiz-adv-x="494" 
 />
    <glyph glyph-name="greaterequal" unicode="&#x2265;" horiz-adv-x="494" 
 />
    <glyph glyph-name="lozenge" unicode="&#x25ca;" horiz-adv-x="553" 
d="M484 333l-195 -333h-74l-97 166l-98 166l195 335h74zM251 129l120 204c-28 50 -58 100 -87 150l-32 54l-39 -66c-28 -49 -51 -89 -81 -139zM215 69l36 60l13 -20l24 -41zM384 354v-42l-13 21z" />
    <glyph glyph-name="E.alt" unicode="&#xe000;" horiz-adv-x="467" 
d="M113 177v-76h325v-101h-427v699h426v-101h-324v-322h317v-99h-317z" />
    <glyph glyph-name="Eacute.alt" unicode="&#xe001;" horiz-adv-x="467" 
d="M113 177v-76h325v-101h-427v699h426v-101h-324v-322h317v-99h-317zM273 735h-95l72 107h136z" />
    <glyph glyph-name="Egrave.alt" unicode="&#xe002;" horiz-adv-x="467" 
d="M113 101v76h317v99h-317v322h324v101h-426v-699h427v101h-325zM298 735h-95l-113 107h136z" />
    <glyph glyph-name="Ecircumflex.alt" unicode="&#xe003;" horiz-adv-x="466" 
d="M113 177v-76h325v-101h-427v699h426v-101h-324v-322h317v-99h-317zM184 735h-110l113 100h86l110 -100h-108l-48 39z" />
    <glyph glyph-name="Edieresis.alt" unicode="&#xe004;" horiz-adv-x="467" 
d="M113 101v76h317v99h-317v322h324v101h-426v-699h427v101h-325zM142 825c34 0 57 -19 57 -48c0 -23 -23 -46 -57 -46c-31 0 -55 23 -55 46c0 29 24 48 55 48zM324 825c34 0 56 -19 56 -48c0 -23 -26 -46 -56 -46c-32 0 -56 23 -56 46c0 29 24 48 56 48z" />
    <glyph glyph-name="F.alt" unicode="&#xe005;" horiz-adv-x="459" 
d="M113 171v-171h-101v699h417v-101h-316v-325h280v-102h-280z" />
    <glyph glyph-name="H.alt" unicode="&#xe006;" horiz-adv-x="563" 
d="M116 699v-429h296v429h102v-699h-102v170h-296v-170h-101v699h101z" />
    <glyph glyph-name="N.alt" unicode="&#xe007;" 
d="M440 459v239h100v-698h-100v347l-316 212v-559h-102v698h69z" />
    <glyph glyph-name="Ntilde.alt" unicode="&#xe008;" 
d="M440 459v239h100v-698h-100v347l-316 212v-559h-102v698h69zM203 713l-59 27c22 48 42 77 71 80c60 4 103 -82 124 -5l63 -32c-18 -42 -37 -71 -64 -80c-50 -16 -103 82 -135 10z" />
    <glyph glyph-name="U.alt" unicode="&#xe009;" horiz-adv-x="585" 
d="M21 35v664h102v-595c0 -33 313 -32 312 0v595h102v-665c-1 -61 -515 -65 -516 1z" />
    <glyph glyph-name="Uacute.alt" unicode="&#xe00a;" horiz-adv-x="585" 
d="M21 35v664h102v-595c0 -33 313 -32 312 0v595h102v-665c-1 -61 -515 -65 -516 1zM309 735h-95l72 107h136z" />
    <glyph glyph-name="Ugrave.alt" unicode="&#xe00b;" horiz-adv-x="585" 
d="M21 699v-664c1 -66 515 -62 516 -1v665h-102v-595c1 -32 -312 -33 -312 0v595h-102zM345 735h-95l-113 107h136z" />
    <glyph glyph-name="Ucircumflex.alt" unicode="&#xe00c;" horiz-adv-x="585" 
d="M21 35v664h102v-595c0 -33 313 -32 312 0v595h102v-665c-1 -61 -515 -65 -516 1zM236 735h-110l113 100h86l110 -100h-108l-48 39z" />
    <glyph glyph-name="Udieresis.alt" unicode="&#xe00d;" horiz-adv-x="585" 
d="M21 699v-664c1 -66 515 -62 516 -1v665h-102v-595c1 -32 -312 -33 -312 0v595h-102zM190 825c34 0 57 -19 57 -48c0 -23 -23 -46 -57 -46c-31 0 -55 23 -55 46c0 29 24 48 55 48zM372 825c34 0 56 -19 56 -48c0 -23 -26 -46 -56 -46c-32 0 -56 23 -56 46
c0 29 24 48 56 48z" />
    <glyph glyph-name="Y.alt" unicode="&#xe00e;" horiz-adv-x="593" 
d="M-27 700h116l193 -385l183 385h114l-339 -700h-112l97 202z" />
    <glyph glyph-name="Ydieresis.alt" unicode="&#xe00f;" horiz-adv-x="591" 
d="M97 700h-116l252 -498l-97 -202h112l339 700h-114l-183 -385zM200 823c34 0 57 -19 57 -48c0 -23 -23 -46 -57 -46c-31 0 -55 23 -55 46c0 29 24 48 55 48zM382 823c34 0 56 -19 56 -48c0 -23 -26 -46 -56 -46c-32 0 -56 23 -56 46c0 29 24 48 56 48z" />
    <glyph glyph-name="seven.alt" unicode="&#xe010;" horiz-adv-x="372" 
 />
    <glyph glyph-name="nine.alt" unicode="&#xe011;" horiz-adv-x="423" 
 />
    <glyph glyph-name="P" unicode="P" horiz-adv-x="527" 
d="M14 700h256c151 0 227 -117 227 -234s-76 -233 -227 -233h-154v-233h-102v700zM116 333h154c85 0 127 66 127 132c0 67 -42 133 -127 133h-154v-265z" />
    <glyph glyph-name="AE" unicode="&#xc6;" horiz-adv-x="840" 
d="M471 249v-148h326v-101h-427v249h-148c-45 -78 -100 -174 -142 -249h-114l392 700h437v-101h-324v-249h317v-101h-317zM278 350h92l10 222z" />
    <glyph glyph-name="Ccedilla" unicode="&#xc7;" horiz-adv-x="699" 
d="M3 348c0 99 40 187 100 251c61 63 147 104 242 104c160 0 286 -100 326 -258h-100c-37 105 -123 158 -226 158c-67 0 -128 -29 -172 -75s-72 -108 -72 -180c0 -70 28 -132 72 -178s105 -75 172 -75c106 0 196 61 232 167h99c-38 -151 -156 -256 -307 -266l-10 -27
c103 -6 131 -119 33 -177c-61 -37 -173 -14 -189 68l58 18c82 -106 196 52 6 44l33 76c-77 10 -146 47 -197 101c-60 64 -100 152 -100 249z" />
    <glyph glyph-name="OE" unicode="&#x152;" horiz-adv-x="829" 
d="M465 299v-200h325v-101h-371c-20 -3 -43 -5 -64 -5c-202 0 -358 150 -358 357s156 357 358 357c19 0 36 -1 55 -4h378v-101h-323v-201h316v-102h-316zM355 614c-145 -2 -256 -119 -256 -264c0 -146 111 -262 256 -262h5h3v526h-8z" />
    <glyph glyph-name="Oslash" unicode="&#xd8;" horiz-adv-x="760" 
d="M4 350c0 99 41 188 104 253c64 65 154 106 252 106c55 0 105 -10 151 -33l33 51l112 1l-66 -106c90 -78 127 -174 127 -272c0 -99 -41 -188 -104 -253c-64 -66 -154 -106 -253 -106c-48 0 -110 14 -152 33l-42 -67h-111l76 122l-23 19v-1c-63 65 -104 154 -104 253z
M615 350c0 74 -32 140 -80 188c-95 -149 -174 -271 -273 -425c35 -17 65 -20 98 -20c70 0 134 29 181 76c45 46 74 109 74 181zM360 607c-69 0 -133 -29 -179 -76c-45 -46 -75 -110 -75 -181s30 -135 75 -181v-1c0 -1 5 -3 5 -4l270 426c-29 11 -64 17 -96 17z" />
    <glyph glyph-name="a" unicode="a" 
d="M276 548l-88 -247h174zM485 0l-84 206h-251c-27 -64 -62 -148 -84 -206h-109l281 709h74l281 -709h-108z" />
    <glyph glyph-name="b" unicode="b" horiz-adv-x="562" 
d="M116 603v-182h189c110 0 112 182 2 182h-191zM16 699h291c88 0 144 -50 170 -115c28 -69 19 -149 -51 -199c80 -34 109 -108 109 -174c0 -105 -69 -211 -203 -211h-316v699zM116 321v-223h216c68 0 102 57 102 112s-34 111 -102 111h-216z" />
    <glyph glyph-name="c" unicode="c" horiz-adv-x="710" 
d="M3 348c0 99 40 187 100 251c61 63 147 104 242 104c160 0 286 -100 326 -258h-100c-37 105 -123 158 -226 158c-67 0 -128 -29 -172 -75s-72 -108 -72 -180c0 -70 28 -132 72 -178s105 -75 172 -75c106 0 196 61 232 167h99c-40 -159 -168 -267 -331 -267
c-95 0 -181 40 -242 104c-60 64 -100 152 -100 249z" />
    <glyph glyph-name="d" unicode="d" horiz-adv-x="651" 
d="M118 101h150c162 0 244 124 244 248s-82 249 -244 249h-150v-497zM17 699h251c229 0 344 -175 344 -350s-115 -349 -344 -349h-251v699z" />
    <glyph glyph-name="e" unicode="e" horiz-adv-x="468" 
d="M114 299v-198h325v-101h-427v699h426v-101h-324v-197h317v-102h-317z" />
    <glyph glyph-name="f" unicode="f" horiz-adv-x="449" 
d="M113 299v-299h-101v699h417v-101h-316v-197h280v-102h-280z" />
    <glyph glyph-name="g" unicode="g" horiz-adv-x="725" 
d="M680 449h-108c-28 113 -136 154 -225 154c-137 0 -243 -107 -243 -254c0 -148 106 -257 243 -257c86 0 178 40 220 142h-259v101h377c-5 -59 -10 -98 -19 -121v1c-48 -134 -192 -220 -319 -220c-196 0 -344 148 -344 354c0 207 151 355 344 355c134 0 296 -69 333 -255z
" />
    <glyph glyph-name="h" unicode="h" horiz-adv-x="563" 
d="M116 699v-295h296v295h102v-699h-102v304h-296v-304h-101v699h101z" />
    <glyph glyph-name="i" unicode="i" horiz-adv-x="374" 
d="M345 699v-100h-130v-498h130v-101h-361v101h130v498h-130v100h361z" />
    <glyph glyph-name="j" unicode="j" horiz-adv-x="412" 
d="M370 699v-396c0 -208 -165 -303 -380 -303v95c159 0 279 69 279 208v296h-189v100h290z" />
    <glyph glyph-name="k" unicode="k" horiz-adv-x="525" 
d="M17 699h100v-699h-100v699zM136 324v51l244 324h127l-267 -347l295 -352h-132z" />
    <glyph glyph-name="l" unicode="l" horiz-adv-x="478" 
d="M122 699v-598h329v-101h-430v699h101z" />
    <glyph glyph-name="m" unicode="m" horiz-adv-x="707" 
d="M120 493v-493h-101v700h82l231 -340l231 340h80v-700h-100v493l-183 -272h-57z" />
    <glyph glyph-name="n" unicode="n" 
d="M117 0h-101v701l78 -1l341 -493v493h100v-700h-80l-338 489v-489z" />
    <glyph glyph-name="o" unicode="o" horiz-adv-x="758" 
d="M609 350c0 72 -29 135 -74 181c-47 47 -112 76 -181 76s-133 -29 -179 -76c-46 -46 -75 -110 -75 -181s29 -135 75 -181c46 -47 110 -76 179 -76s134 29 181 76c45 46 74 109 74 181zM-2 350c0 99 41 188 104 253c64 65 154 106 252 106c99 0 188 -41 253 -106
c63 -65 104 -154 104 -253s-41 -188 -104 -253c-65 -66 -154 -106 -253 -106c-98 0 -188 40 -252 106c-63 65 -104 154 -104 253z" />
    <glyph glyph-name="p" unicode="p" horiz-adv-x="533" 
d="M14 700h256c151 0 227 -117 227 -234s-76 -233 -227 -233h-154v-233h-102v700zM116 333h154c85 0 127 66 127 132c0 67 -42 133 -127 133h-154v-265z" />
    <glyph glyph-name="q" unicode="q" horiz-adv-x="774" 
d="M616 350c0 71 -30 135 -75 181c-46 47 -110 76 -180 76c-69 0 -133 -29 -180 -76c-45 -46 -75 -110 -75 -181s30 -136 75 -182c87 -87 215 -103 322 -39l-194 173h140l119 -108c31 42 48 100 48 156zM758 22v-22h-110l-66 59c-156 -103 -363 -84 -473 38
c-61 67 -104 154 -104 253s41 188 104 253c64 65 154 106 252 106c99 0 188 -41 253 -106c63 -65 104 -154 104 -253c0 -83 -29 -158 -76 -219z" />
    <glyph glyph-name="r" unicode="r" horiz-adv-x="531" 
d="M154 307v48h118c85 0 127 61 127 122c0 60 -42 121 -127 121h-155v-598h-100v700h255c152 0 228 -112 228 -223c0 -99 -61 -193 -181 -214l221 -263h-131z" />
    <glyph glyph-name="s" unicode="s" horiz-adv-x="554" 
d="M498 523l-100 -4c-14 63 -82 90 -143 89c-47 -1 -99 -17 -127 -53c-14 -18 -19 -41 -17 -65c5 -72 84 -81 159 -88c96 -12 215 -37 242 -149c3 -15 5 -32 5 -46c0 -135 -134 -213 -260 -213c-108 0 -239 64 -252 189l-1 19l102 2l1 -15v4c7 -65 86 -99 151 -99
c75 0 157 42 157 114c0 7 -1 15 -3 24c-12 53 -84 62 -154 69c-109 11 -237 35 -248 181v-1c-4 47 8 94 38 133c47 61 131 93 212 93c108 0 220 -56 238 -184z" />
    <glyph glyph-name="t" unicode="t" horiz-adv-x="534" 
d="M293 -3h-101v609h-212v94h524v-94h-211v-609z" />
    <glyph glyph-name="u" unicode="u" horiz-adv-x="589" 
d="M277 -7c-123 0 -259 74 -259 217v489h102v-490c0 -77 83 -115 157 -115c73 0 156 39 156 116v489h102v-490c0 -142 -138 -216 -258 -216z" />
    <glyph glyph-name="v" unicode="v" horiz-adv-x="602" 
d="M277 176l210 523h108l-281 -701h-74l-281 701h110z" />
    <glyph glyph-name="w" unicode="w" horiz-adv-x="851" 
d="M520 -4l-123 337c-40 -114 -85 -231 -121 -337h-71l-235 703h105l167 -505l115 327h81l114 -326c55 167 116 345 168 504h106l-235 -703h-71z" />
    <glyph glyph-name="x" unicode="x" horiz-adv-x="601" 
d="M-42 699h124l190 -262l191 262h123l-253 -351c75 -103 186 -255 253 -348h-123l-191 262l-190 -262h-124l253 348c-75 103 -189 262 -253 351z" />
    <glyph glyph-name="y" unicode="y" horiz-adv-x="567" 
d="M-50 699h119l191 -307l191 307h120l-260 -414v-285h-102v285z" />
    <glyph glyph-name="Scaron" unicode="&#x160;" horiz-adv-x="554" 
d="M498 523l-100 -4c-14 63 -82 90 -143 89c-47 -1 -99 -17 -127 -53c-14 -18 -19 -41 -17 -65c5 -72 84 -81 159 -88c96 -12 215 -37 242 -149c3 -15 5 -32 5 -46c0 -135 -134 -213 -260 -213c-108 0 -239 64 -252 189l-1 19l102 2l1 -15v4c7 -65 86 -99 151 -99
c75 0 157 42 157 114c0 7 -1 15 -3 24c-12 53 -84 62 -154 69c-109 11 -237 35 -248 181v-1c-4 47 8 94 38 133c47 61 131 93 212 93c108 0 220 -56 238 -184zM305 835h110l-113 -100l-89 1l-110 99h108l49 -39z" />
    <glyph glyph-name="Zcaron" unicode="&#x17d;" horiz-adv-x="561" 
d="M1 598v101h503l34 -64l-406 -534h400v-101h-520l-41 56l412 542h-382zM316 835h110l-113 -100l-89 1l-110 99h108l49 -39z" />
    <glyph glyph-name="zcaron" unicode="&#x17e;" horiz-adv-x="561" 
d="M1 598v101h503l34 -64l-406 -534h400v-101h-520l-41 56l412 542h-382zM316 835h110l-113 -100l-89 1l-110 99h108l49 -39z" />
    <glyph glyph-name="scaron" unicode="&#x161;" horiz-adv-x="554" 
d="M498 523l-100 -4c-14 63 -82 90 -143 89c-47 -1 -99 -17 -127 -53c-14 -18 -19 -41 -17 -65c5 -72 84 -81 159 -88c96 -12 215 -37 242 -149c3 -15 5 -32 5 -46c0 -135 -134 -213 -260 -213c-108 0 -239 64 -252 189l-1 19l102 2l1 -15v4c7 -65 86 -99 151 -99
c75 0 157 42 157 114c0 7 -1 15 -3 24c-12 53 -84 62 -154 69c-109 11 -237 35 -248 181v-1c-4 47 8 94 38 133c47 61 131 93 212 93c108 0 220 -56 238 -184zM305 835h110l-113 -100l-89 1l-110 99h108l49 -39z" />
    <glyph glyph-name="Ydieresis" unicode="&#x178;" horiz-adv-x="567" 
d="M69 699h-119l259 -414v-285h102v285l260 414h-120l-191 -307zM159 837c35 0 59 -24 59 -59c0 -28 -24 -56 -59 -56c-31 0 -56 28 -56 56c0 35 25 59 56 59zM346 837c35 0 58 -24 58 -59c0 -28 -27 -56 -58 -56c-32 0 -57 28 -57 56c0 35 25 59 57 59z" />
    <glyph glyph-name="oe" unicode="&#x153;" horiz-adv-x="829" 
d="M465 299v-200h325v-101h-371c-20 -3 -43 -5 -64 -5c-202 0 -358 150 -358 357s156 357 358 357c19 0 36 -1 55 -4h378v-101h-323v-201h316v-102h-316zM355 614c-145 -2 -256 -119 -256 -264c0 -146 111 -262 256 -262h5h3v526h-8z" />
    <glyph glyph-name="yen" unicode="&#xa5;" horiz-adv-x="567" 
d="M98 203v73h114l-13 25h-101v69h58l-206 329h119l191 -307l191 307h120l-207 -329h53v-69h-96l-14 -25h110v-73h-106v-203h-102v203h-111z" />
    <glyph glyph-name="Agrave" unicode="&#xc0;" 
d="M276 548l-88 -247h174zM485 0l-84 206h-251c-27 -64 -62 -148 -84 -206h-109l281 709h74l281 -709h-108zM321 736h-95l-113 107h136z" />
    <glyph glyph-name="Aacute" unicode="&#xc1;" 
d="M276 548l-88 -247h174zM485 0l-84 206h-251c-27 -64 -62 -148 -84 -206h-109l281 709h74l281 -709h-108zM320 735h-95l72 107h136z" />
    <glyph glyph-name="Acircumflex" unicode="&#xc2;" 
d="M276 548l-88 -247h174zM485 0l-84 206h-251c-27 -64 -62 -148 -84 -206h-109l281 709h74l281 -709h-108zM226 729h-110l113 100h86l110 -100h-108l-48 39z" />
    <glyph glyph-name="Atilde" unicode="&#xc3;" 
d="M202 731l-58 27c21 48 44 71 73 75c60 4 100 -76 121 0l64 -32c-17 -41 -37 -64 -65 -72c-49 -17 -103 73 -135 2zM276 548l-88 -247h174zM485 0l-84 206h-251c-27 -64 -62 -148 -84 -206h-109l281 709h74l281 -709h-108z" />
    <glyph glyph-name="Adieresis" unicode="&#xc4;" 
d="M276 548l-88 -247h174zM485 0l-84 206h-251c-27 -64 -62 -148 -84 -206h-109l281 709h74l281 -709h-108zM186 821c34 0 57 -19 57 -48c0 -23 -23 -46 -57 -46c-31 0 -55 23 -55 46c0 29 24 48 55 48zM368 821c34 0 56 -19 56 -48c0 -23 -26 -46 -56 -46
c-32 0 -56 23 -56 46c0 29 24 48 56 48z" />
    <glyph glyph-name="Aring" unicode="&#xc5;" horiz-adv-x="594" 
d="M194 764c0 46 37 85 83 85s85 -39 85 -85c0 -30 -15 -56 -38 -71l275 -693h-108l-84 206h-251c-27 -64 -62 -148 -84 -206h-109l273 690c-25 15 -42 43 -42 74zM282 548l-88 -247h174zM310 764c0 17 -13 33 -33 33c-16 0 -31 -16 -31 -33c0 -16 15 -31 31 -31
c20 0 33 15 33 31z" />
    <glyph glyph-name="agrave" unicode="&#xe0;" 
d="M276 548l-88 -247h174zM485 0l-84 206h-251c-27 -64 -62 -148 -84 -206h-109l281 709h74l281 -709h-108zM321 736h-95l-113 107h136z" />
    <glyph glyph-name="aacute" unicode="&#xe1;" 
d="M276 548l-88 -247h174zM485 0l-84 206h-251c-27 -64 -62 -148 -84 -206h-109l281 709h74l281 -709h-108zM320 735h-95l72 107h136z" />
    <glyph glyph-name="acircumflex" unicode="&#xe2;" 
d="M276 548l-88 -247h174zM485 0l-84 206h-251c-27 -64 -62 -148 -84 -206h-109l281 709h74l281 -709h-108zM226 729h-110l113 100h86l110 -100h-108l-48 39z" />
    <glyph glyph-name="atilde" unicode="&#xe3;" 
d="M202 731l-58 27c21 48 44 71 73 75c60 4 100 -76 121 0l64 -32c-17 -41 -37 -64 -65 -72c-49 -17 -103 73 -135 2zM276 548l-88 -247h174zM485 0l-84 206h-251c-27 -64 -62 -148 -84 -206h-109l281 709h74l281 -709h-108z" />
    <glyph glyph-name="adieresis" unicode="&#xe4;" 
d="M276 548l-88 -247h174zM485 0l-84 206h-251c-27 -64 -62 -148 -84 -206h-109l281 709h74l281 -709h-108zM186 821c34 0 57 -19 57 -48c0 -23 -23 -46 -57 -46c-31 0 -55 23 -55 46c0 29 24 48 55 48zM368 821c34 0 56 -19 56 -48c0 -23 -26 -46 -56 -46
c-32 0 -56 23 -56 46c0 29 24 48 56 48z" />
    <glyph glyph-name="aring" unicode="&#xe5;" horiz-adv-x="594" 
d="M194 764c0 46 37 85 83 85s85 -39 85 -85c0 -30 -15 -56 -38 -71l275 -693h-108l-84 206h-251c-27 -64 -62 -148 -84 -206h-109l273 690c-25 15 -42 43 -42 74zM282 548l-88 -247h174zM310 764c0 17 -13 33 -33 33c-16 0 -31 -16 -31 -33c0 -16 15 -31 31 -31
c20 0 33 15 33 31z" />
    <glyph glyph-name="ae" unicode="&#xe6;" horiz-adv-x="840" 
d="M471 249v-148h326v-101h-427v249h-148c-45 -78 -100 -174 -142 -249h-114l392 700h437v-101h-324v-249h317v-101h-317zM278 350h92l10 222z" />
    <glyph glyph-name="Egrave" unicode="&#xc8;" horiz-adv-x="468" 
d="M114 101v198h317v102h-317v197h324v101h-426v-699h427v101h-325zM304 732h-95l-113 107h136z" />
    <glyph glyph-name="Eacute" unicode="&#xc9;" horiz-adv-x="468" 
d="M114 299v-198h325v-101h-427v699h426v-101h-324v-197h317v-102h-317zM266 730h-95l72 107h136z" />
    <glyph glyph-name="Ecircumflex" unicode="&#xca;" horiz-adv-x="468" 
d="M114 299v-198h325v-101h-427v699h426v-101h-324v-197h317v-102h-317zM190 733h-110l113 100h86l110 -100h-108l-48 39z" />
    <glyph glyph-name="Edieresis" unicode="&#xcb;" horiz-adv-x="468" 
d="M114 101v198h317v102h-317v197h324v101h-426v-699h427v101h-325zM147 830c35 0 58 -22 58 -53c0 -24 -23 -49 -58 -49c-30 0 -55 25 -55 49c0 31 25 53 55 53zM330 830c35 0 57 -22 57 -53c0 -24 -26 -49 -57 -49s-55 25 -55 49c0 31 24 53 55 53z" />
    <glyph glyph-name="Igrave" unicode="&#xcc;" horiz-adv-x="379" 
d="M350 599v100h-361v-100h130v-498h-130v-101h361v101h-130v498h130zM223 728h-95l-113 107h136z" />
    <glyph glyph-name="Iacute" unicode="&#xcd;" horiz-adv-x="374" 
d="M345 699v-100h-130v-498h130v-101h-361v101h130v498h-130v100h361zM207 731h-95l72 107h136z" />
    <glyph glyph-name="Icircumflex" unicode="&#xce;" horiz-adv-x="374" 
d="M345 699v-100h-130v-498h130v-101h-361v101h130v498h-130v100h361zM121 729h-110l113 100h86l110 -100h-108l-48 39z" />
    <glyph glyph-name="Idieresis" unicode="&#xcf;" horiz-adv-x="374" 
d="M345 599v100h-361v-100h130v-498h-130v-101h361v101h-130v498h130zM77 828c34 0 57 -21 57 -52c0 -24 -23 -49 -57 -49c-31 0 -55 25 -55 49c0 31 24 52 55 52zM259 828c34 0 56 -21 56 -52c0 -24 -26 -49 -56 -49c-32 0 -56 25 -56 49c0 31 24 52 56 52z" />
    <glyph glyph-name="Ntilde" unicode="&#xd1;" 
d="M217 726l-60 25c20 50 38 78 67 83c61 7 107 -76 124 1l66 -29c-16 -43 -35 -71 -61 -81c-50 -17 -107 75 -136 1zM117 0h-101v701l78 -1l341 -493v493h100v-700h-80l-338 489v-489z" />
    <glyph glyph-name="Ograve" unicode="&#xd2;" horiz-adv-x="758" 
d="M609 350c0 -72 -29 -135 -74 -181c-47 -47 -112 -76 -181 -76s-133 29 -179 76c-46 46 -75 110 -75 181s29 135 75 181c46 47 110 76 179 76s134 -29 181 -76c45 -46 74 -109 74 -181zM-2 350c0 -99 41 -188 104 -253c64 -66 154 -106 252 -106c99 0 188 40 253 106
c63 65 104 154 104 253s-41 188 -104 253c-65 65 -154 106 -253 106c-98 0 -188 -41 -252 -106c-63 -65 -104 -154 -104 -253zM416 735h-95l-113 107h136z" />
    <glyph glyph-name="Oacute" unicode="&#xd3;" horiz-adv-x="758" 
d="M609 350c0 72 -29 135 -74 181c-47 47 -112 76 -181 76s-133 -29 -179 -76c-46 -46 -75 -110 -75 -181s29 -135 75 -181c46 -47 110 -76 179 -76s134 29 181 76c45 46 74 109 74 181zM-2 350c0 99 41 188 104 253c64 65 154 106 252 106c99 0 188 -41 253 -106
c63 -65 104 -154 104 -253s-41 -188 -104 -253c-65 -66 -154 -106 -253 -106c-98 0 -188 40 -252 106c-63 65 -104 154 -104 253zM391 734h-95l72 107h136z" />
    <glyph glyph-name="Ocircumflex" unicode="&#xd4;" horiz-adv-x="758" 
d="M609 350c0 72 -29 135 -74 181c-47 47 -112 76 -181 76s-133 -29 -179 -76c-46 -46 -75 -110 -75 -181s29 -135 75 -181c46 -47 110 -76 179 -76s134 29 181 76c45 46 74 109 74 181zM-2 350c0 99 41 188 104 253c64 65 154 106 252 106c99 0 188 -41 253 -106
c63 -65 104 -154 104 -253s-41 -188 -104 -253c-65 -66 -154 -106 -253 -106c-98 0 -188 40 -252 106c-63 65 -104 154 -104 253zM314 732h-110l113 100h86l110 -100h-108l-48 39z" />
    <glyph glyph-name="Otilde" unicode="&#xd5;" horiz-adv-x="758" 
d="M285 735l-61 22c20 45 40 71 69 75c61 7 106 -67 125 1l66 -24c-17 -38 -35 -66 -63 -75c-49 -17 -108 68 -136 1zM609 350c0 72 -29 135 -74 181c-47 47 -112 76 -181 76s-133 -29 -179 -76c-46 -46 -75 -110 -75 -181s29 -135 75 -181c46 -47 110 -76 179 -76
s134 29 181 76c45 46 74 109 74 181zM-2 350c0 99 41 188 104 253c64 65 154 106 252 106c99 0 188 -41 253 -106c63 -65 104 -154 104 -253s-41 -188 -104 -253c-65 -66 -154 -106 -253 -106c-98 0 -188 40 -252 106c-63 65 -104 154 -104 253z" />
    <glyph glyph-name="Odieresis" unicode="&#xd6;" horiz-adv-x="758" 
d="M609 350c0 -72 -29 -135 -74 -181c-47 -47 -112 -76 -181 -76s-133 29 -179 76c-46 46 -75 110 -75 181s29 135 75 181c46 47 110 76 179 76s134 -29 181 -76c45 -46 74 -109 74 -181zM-2 350c0 -99 41 -188 104 -253c64 -66 154 -106 252 -106c99 0 188 40 253 106
c63 65 104 154 104 253s-41 188 -104 253c-65 65 -154 106 -253 106c-98 0 -188 -41 -252 -106c-63 -65 -104 -154 -104 -253zM266 827c34 0 58 -20 58 -50c0 -24 -24 -48 -58 -48c-31 0 -55 24 -55 48c0 30 24 50 55 50zM450 827c35 0 58 -20 58 -50c0 -24 -27 -48 -58 -48
s-56 24 -56 48c0 30 25 50 56 50z" />
    <glyph glyph-name="Ugrave" unicode="&#xd9;" horiz-adv-x="589" 
d="M277 -7c120 0 258 74 258 216v490h-102v-489c0 -77 -83 -116 -156 -116c-74 0 -157 38 -157 115v490h-102v-489c0 -143 136 -217 259 -217zM356 727h-95l-113 107h136z" />
    <glyph glyph-name="Uacute" unicode="&#xda;" horiz-adv-x="589" 
d="M277 -7c-123 0 -259 74 -259 217v489h102v-490c0 -77 83 -115 157 -115c73 0 156 39 156 116v489h102v-490c0 -142 -138 -216 -258 -216zM304 729h-95l72 107h136z" />
    <glyph glyph-name="Ucircumflex" unicode="&#xdb;" horiz-adv-x="589" 
d="M277 -7c-123 0 -259 74 -259 217v489h102v-490c0 -77 83 -115 157 -115c73 0 156 39 156 116v489h102v-490c0 -142 -138 -216 -258 -216zM229 729h-110l113 100h86l110 -100h-108l-48 39z" />
    <glyph glyph-name="Udieresis" unicode="&#xdc;" horiz-adv-x="589" 
d="M277 -7c120 0 258 74 258 216v490h-102v-489c0 -77 -83 -116 -156 -116c-74 0 -157 38 -157 115v490h-102v-489c0 -143 136 -217 259 -217zM186 830c35 0 59 -21 59 -53c0 -25 -24 -50 -59 -50c-30 0 -55 25 -55 50c0 32 25 53 55 53zM372 830c35 0 58 -21 58 -53
c0 -25 -27 -50 -58 -50c-32 0 -56 25 -56 50c0 32 24 53 56 53z" />
    <glyph glyph-name="Yacute" unicode="&#xdd;" horiz-adv-x="567" 
d="M-50 699h119l191 -307l191 307h120l-260 -414v-285h-102v285zM294 730h-95l72 107h136z" />
    <glyph glyph-name="ccedilla" unicode="&#xe7;" horiz-adv-x="699" 
d="M3 348c0 99 40 187 100 251c61 63 147 104 242 104c160 0 286 -100 326 -258h-100c-37 105 -123 158 -226 158c-67 0 -128 -29 -172 -75s-72 -108 -72 -180c0 -70 28 -132 72 -178s105 -75 172 -75c106 0 196 61 232 167h99c-38 -151 -156 -256 -307 -266l-10 -27
c103 -6 131 -119 33 -177c-61 -37 -173 -14 -189 68l58 18c82 -106 196 52 6 44l33 76c-77 10 -146 47 -197 101c-60 64 -100 152 -100 249z" />
    <glyph glyph-name="egrave" unicode="&#xe8;" horiz-adv-x="468" 
d="M114 101v198h317v102h-317v197h324v101h-426v-699h427v101h-325zM304 732h-95l-113 107h136z" />
    <glyph glyph-name="eacute" unicode="&#xe9;" horiz-adv-x="468" 
d="M114 299v-198h325v-101h-427v699h426v-101h-324v-197h317v-102h-317zM266 730h-95l72 107h136z" />
    <glyph glyph-name="ecircumflex" unicode="&#xea;" horiz-adv-x="468" 
d="M114 299v-198h325v-101h-427v699h426v-101h-324v-197h317v-102h-317zM190 733h-110l113 100h86l110 -100h-108l-48 39z" />
    <glyph glyph-name="edieresis" unicode="&#xeb;" horiz-adv-x="468" 
d="M114 101v198h317v102h-317v197h324v101h-426v-699h427v101h-325zM147 830c35 0 58 -22 58 -53c0 -24 -23 -49 -58 -49c-30 0 -55 25 -55 49c0 31 25 53 55 53zM330 830c35 0 57 -22 57 -53c0 -24 -26 -49 -57 -49s-55 25 -55 49c0 31 24 53 55 53z" />
    <glyph glyph-name="igrave" unicode="&#xec;" horiz-adv-x="379" 
d="M350 599v100h-361v-100h130v-498h-130v-101h361v101h-130v498h130zM223 728h-95l-113 107h136z" />
    <glyph glyph-name="iacute" unicode="&#xed;" horiz-adv-x="374" 
d="M345 699v-100h-130v-498h130v-101h-361v101h130v498h-130v100h361zM207 731h-95l72 107h136z" />
    <glyph glyph-name="icircumflex" unicode="&#xee;" horiz-adv-x="374" 
d="M345 699v-100h-130v-498h130v-101h-361v101h130v498h-130v100h361zM121 729h-110l113 100h86l110 -100h-108l-48 39z" />
    <glyph glyph-name="idieresis" unicode="&#xef;" horiz-adv-x="374" 
d="M345 599v100h-361v-100h130v-498h-130v-101h361v101h-130v498h130zM77 828c34 0 57 -21 57 -52c0 -24 -23 -49 -57 -49c-31 0 -55 25 -55 49c0 31 24 52 55 52zM259 828c34 0 56 -21 56 -52c0 -24 -26 -49 -56 -49c-32 0 -56 25 -56 49c0 31 24 52 56 52z" />
    <glyph glyph-name="ntilde" unicode="&#xf1;" 
d="M217 726l-60 25c20 50 38 78 67 83c61 7 107 -76 124 1l66 -29c-16 -43 -35 -71 -61 -81c-50 -17 -107 75 -136 1zM117 0h-101v701l78 -1l341 -493v493h100v-700h-80l-338 489v-489z" />
    <glyph glyph-name="ograve" unicode="&#xf2;" horiz-adv-x="758" 
d="M609 350c0 -72 -29 -135 -74 -181c-47 -47 -112 -76 -181 -76s-133 29 -179 76c-46 46 -75 110 -75 181s29 135 75 181c46 47 110 76 179 76s134 -29 181 -76c45 -46 74 -109 74 -181zM-2 350c0 -99 41 -188 104 -253c64 -66 154 -106 252 -106c99 0 188 40 253 106
c63 65 104 154 104 253s-41 188 -104 253c-65 65 -154 106 -253 106c-98 0 -188 -41 -252 -106c-63 -65 -104 -154 -104 -253zM416 735h-95l-113 107h136z" />
    <glyph glyph-name="oacute" unicode="&#xf3;" horiz-adv-x="758" 
d="M609 350c0 72 -29 135 -74 181c-47 47 -112 76 -181 76s-133 -29 -179 -76c-46 -46 -75 -110 -75 -181s29 -135 75 -181c46 -47 110 -76 179 -76s134 29 181 76c45 46 74 109 74 181zM-2 350c0 99 41 188 104 253c64 65 154 106 252 106c99 0 188 -41 253 -106
c63 -65 104 -154 104 -253s-41 -188 -104 -253c-65 -66 -154 -106 -253 -106c-98 0 -188 40 -252 106c-63 65 -104 154 -104 253zM391 734h-95l72 107h136z" />
    <glyph glyph-name="ocircumflex" unicode="&#xf4;" horiz-adv-x="758" 
d="M609 350c0 72 -29 135 -74 181c-47 47 -112 76 -181 76s-133 -29 -179 -76c-46 -46 -75 -110 -75 -181s29 -135 75 -181c46 -47 110 -76 179 -76s134 29 181 76c45 46 74 109 74 181zM-2 350c0 99 41 188 104 253c64 65 154 106 252 106c99 0 188 -41 253 -106
c63 -65 104 -154 104 -253s-41 -188 -104 -253c-65 -66 -154 -106 -253 -106c-98 0 -188 40 -252 106c-63 65 -104 154 -104 253zM314 732h-110l113 100h86l110 -100h-108l-48 39z" />
    <glyph glyph-name="otilde" unicode="&#xf5;" horiz-adv-x="758" 
d="M285 735l-61 22c20 45 40 71 69 75c61 7 106 -67 125 1l66 -24c-17 -38 -35 -66 -63 -75c-49 -17 -108 68 -136 1zM609 350c0 72 -29 135 -74 181c-47 47 -112 76 -181 76s-133 -29 -179 -76c-46 -46 -75 -110 -75 -181s29 -135 75 -181c46 -47 110 -76 179 -76
s134 29 181 76c45 46 74 109 74 181zM-2 350c0 99 41 188 104 253c64 65 154 106 252 106c99 0 188 -41 253 -106c63 -65 104 -154 104 -253s-41 -188 -104 -253c-65 -66 -154 -106 -253 -106c-98 0 -188 40 -252 106c-63 65 -104 154 -104 253z" />
    <glyph glyph-name="odieresis" unicode="&#xf6;" horiz-adv-x="758" 
d="M609 350c0 -72 -29 -135 -74 -181c-47 -47 -112 -76 -181 -76s-133 29 -179 76c-46 46 -75 110 -75 181s29 135 75 181c46 47 110 76 179 76s134 -29 181 -76c45 -46 74 -109 74 -181zM-2 350c0 -99 41 -188 104 -253c64 -66 154 -106 252 -106c99 0 188 40 253 106
c63 65 104 154 104 253s-41 188 -104 253c-65 65 -154 106 -253 106c-98 0 -188 -41 -252 -106c-63 -65 -104 -154 -104 -253zM266 827c34 0 58 -20 58 -50c0 -24 -24 -48 -58 -48c-31 0 -55 24 -55 48c0 30 24 50 55 50zM450 827c35 0 58 -20 58 -50c0 -24 -27 -48 -58 -48
s-56 24 -56 48c0 30 25 50 56 50z" />
    <glyph glyph-name="oslash" unicode="&#xf8;" horiz-adv-x="760" 
d="M4 350c0 99 41 188 104 253c64 65 154 106 252 106c55 0 105 -10 151 -33l33 51l112 1l-66 -106c90 -78 127 -174 127 -272c0 -99 -41 -188 -104 -253c-64 -66 -154 -106 -253 -106c-48 0 -110 14 -152 33l-42 -67h-111l76 122l-23 19v-1c-63 65 -104 154 -104 253z
M615 350c0 74 -32 140 -80 188c-95 -149 -174 -271 -273 -425c35 -17 65 -20 98 -20c70 0 134 29 181 76c45 46 74 109 74 181zM360 607c-69 0 -133 -29 -179 -76c-45 -46 -75 -110 -75 -181s30 -135 75 -181v-1c0 -1 5 -3 5 -4l270 426c-29 11 -64 17 -96 17z" />
    <glyph glyph-name="ugrave" unicode="&#xf9;" horiz-adv-x="589" 
d="M277 -7c120 0 258 74 258 216v490h-102v-489c0 -77 -83 -116 -156 -116c-74 0 -157 38 -157 115v490h-102v-489c0 -143 136 -217 259 -217zM356 727h-95l-113 107h136z" />
    <glyph glyph-name="uacute" unicode="&#xfa;" horiz-adv-x="589" 
d="M277 -7c-123 0 -259 74 -259 217v489h102v-490c0 -77 83 -115 157 -115c73 0 156 39 156 116v489h102v-490c0 -142 -138 -216 -258 -216zM304 729h-95l72 107h136z" />
    <glyph glyph-name="ucircumflex" unicode="&#xfb;" horiz-adv-x="589" 
d="M277 -7c-123 0 -259 74 -259 217v489h102v-490c0 -77 83 -115 157 -115c73 0 156 39 156 116v489h102v-490c0 -142 -138 -216 -258 -216zM229 729h-110l113 100h86l110 -100h-108l-48 39z" />
    <glyph glyph-name="udieresis" unicode="&#xfc;" horiz-adv-x="589" 
d="M277 -7c120 0 258 74 258 216v490h-102v-489c0 -77 -83 -116 -156 -116c-74 0 -157 38 -157 115v490h-102v-489c0 -143 136 -217 259 -217zM186 830c35 0 59 -21 59 -53c0 -25 -24 -50 -59 -50c-30 0 -55 25 -55 50c0 32 25 53 55 53zM372 830c35 0 58 -21 58 -53
c0 -25 -27 -50 -58 -50c-32 0 -56 25 -56 50c0 32 24 53 56 53z" />
    <glyph glyph-name="yacute" unicode="&#xfd;" horiz-adv-x="567" 
d="M-50 699h119l191 -307l191 307h120l-260 -414v-285h-102v285zM294 730h-95l72 107h136z" />
    <glyph glyph-name="ydieresis" unicode="&#xff;" horiz-adv-x="567" 
d="M69 699h-119l259 -414v-285h102v285l260 414h-120l-191 -307zM159 837c35 0 59 -24 59 -59c0 -28 -24 -56 -59 -56c-31 0 -56 28 -56 56c0 35 25 59 56 59zM346 837c35 0 58 -24 58 -59c0 -28 -27 -56 -58 -56c-32 0 -57 28 -57 56c0 35 25 59 57 59z" />
    <glyph glyph-name="estimated" unicode="&#x212e;" horiz-adv-x="657" 
d="M621 295h-456v-203c44 -43 98 -66 162 -66c104 0 169 52 219 134c12 -7 24 -15 36 -22c-61 -91 -130 -150 -255 -150c-176 0 -288 138 -288 308s109 307 289 307c183 0 288 -137 293 -308zM491 333v166c-43 41 -101 67 -163 67c-64 0 -119 -22 -163 -66v-167h326z" />
    <glyph glyph-name="B" unicode="B" horiz-adv-x="570" 
d="M116 603v-182h189c110 0 112 182 2 182h-191zM16 699h291c88 0 144 -50 170 -115c28 -69 19 -149 -51 -199c80 -34 109 -108 109 -174c0 -105 -69 -211 -203 -211h-316v699zM116 321v-223h216c68 0 102 57 102 112s-34 111 -102 111h-216z" />
    <glyph glyph-name="z" unicode="z" horiz-adv-x="533" 
d="M1 607v92h474l34 -64l-396 -545h390v-90h-491l-41 56l404 551h-374z" />
    <glyph glyph-name="Z" unicode="Z" horiz-adv-x="533" 
d="M1 607v92h474l34 -64l-396 -545h390v-90h-491l-41 56l404 551h-374z" />
    </font>
</defs>
</svg>
